<svg width="120" height="110" viewBox="0 0 120 110" fill="none" xmlns="http://www.w3.org/2000/svg">
<path d="M48.5177 76.327V73.8123H50.7343C50.9454 73.8123 51.1465 73.8324 51.3375 73.8725C51.5385 73.9027 51.7144 73.9629 51.8652 74.0532C52.016 74.1436 52.1367 74.2691 52.2271 74.4297C52.3176 74.5903 52.3628 74.7961 52.3628 75.0471C52.3628 75.4988 52.2271 75.8251 51.9557 76.0258C51.6843 76.2266 51.3375 76.327 50.9152 76.327H48.5177ZM46.1502 71.9752V82.7267H51.3676C51.8502 82.7267 52.3176 82.6664 52.77 82.546C53.2324 82.4255 53.6395 82.2398 53.9914 81.9888C54.3533 81.7379 54.6398 81.4166 54.8509 81.0251C55.062 80.6236 55.1676 80.1517 55.1676 79.6097C55.1676 78.9371 55.0017 78.3649 54.6699 77.893C54.3483 77.4112 53.8557 77.0749 53.1922 76.8841C53.6747 76.6533 54.0366 76.3571 54.2779 75.9957C54.5292 75.6343 54.6549 75.1826 54.6549 74.6405C54.6549 74.1386 54.5694 73.7169 54.3985 73.3756C54.2377 73.0343 54.0065 72.7633 53.7049 72.5625C53.4033 72.3517 53.0414 72.2011 52.6192 72.1107C52.197 72.0204 51.7295 71.9752 51.2168 71.9752H46.1502ZM48.5177 80.8896V77.9382H51.0962C51.6089 77.9382 52.021 78.0587 52.3327 78.2996C52.6443 78.5305 52.8001 78.922 52.8001 79.4741C52.8001 79.7552 52.7499 79.9861 52.6493 80.1668C52.5589 80.3475 52.4332 80.4931 52.2724 80.6035C52.1115 80.7039 51.9255 80.7792 51.7144 80.8294C51.5033 80.8695 51.2822 80.8896 51.051 80.8896H48.5177Z" fill="#0D091A"/>
<path d="M56.3905 74.9417V82.7267H58.5317V79.2181C58.5317 78.8668 58.5669 78.5405 58.6373 78.2394C58.7077 77.9382 58.8233 77.6772 58.9841 77.4563C59.155 77.2255 59.3762 77.0448 59.6476 76.9143C59.919 76.7838 60.2508 76.7185 60.6428 76.7185C60.7735 76.7185 60.9092 76.7285 61.0499 76.7486C61.1907 76.7587 61.3113 76.7737 61.4118 76.7938V74.8061C61.2409 74.7559 61.0851 74.7308 60.9444 74.7308C60.673 74.7308 60.4116 74.771 60.1603 74.8513C59.909 74.9316 59.6727 75.0471 59.4516 75.1976C59.2304 75.3382 59.0344 75.5139 58.8635 75.7247C58.6926 75.9254 58.5569 76.1463 58.4563 76.3872H58.4262V74.9417H56.3905Z" fill="#0D091A"/>
<path d="M64.3021 73.737V71.9752H62.1609V73.737H64.3021ZM62.1609 74.9417V82.7267H64.3021V74.9417H62.1609Z" fill="#0D091A"/>
<path d="M71.3714 78.8116C71.3714 79.1328 71.3412 79.444 71.2809 79.7452C71.2206 80.0463 71.1201 80.3174 70.9793 80.5583C70.8386 80.7892 70.6476 80.9749 70.4063 81.1155C70.1751 81.256 69.8836 81.3263 69.5317 81.3263C69.2 81.3263 68.9135 81.256 68.6722 81.1155C68.441 80.9649 68.245 80.7741 68.0841 80.5433C67.9333 80.3023 67.8228 80.0313 67.7524 79.7301C67.682 79.429 67.6468 79.1278 67.6468 78.8266C67.6468 78.5054 67.677 78.1992 67.7373 77.9081C67.8077 77.6069 67.9132 77.3409 68.054 77.11C68.2048 76.8791 68.4008 76.6934 68.642 76.5529C68.8833 76.4123 69.1799 76.3421 69.5317 76.3421C69.8836 76.3421 70.1751 76.4123 70.4063 76.5529C70.6375 76.6934 70.8235 76.8791 70.9642 77.11C71.115 77.3309 71.2206 77.5919 71.2809 77.893C71.3412 78.1842 71.3714 78.4903 71.3714 78.8116ZM71.4015 81.7328V82.7267H73.4372V71.9752H71.296V75.8903H71.2658C71.0246 75.5088 70.6928 75.2227 70.2706 75.032C69.8584 74.8312 69.4211 74.7308 68.9587 74.7308C68.3857 74.7308 67.8831 74.8463 67.4508 75.0772C67.0185 75.298 66.6566 75.5942 66.3651 75.9656C66.0836 76.337 65.8675 76.7687 65.7167 77.2606C65.576 77.7425 65.5056 78.2444 65.5056 78.7664C65.5056 79.3085 65.576 79.8305 65.7167 80.3324C65.8675 80.8344 66.0836 81.2811 66.3651 81.6726C66.6566 82.0541 67.0236 82.3603 67.4659 82.5911C67.9082 82.812 68.4209 82.9224 69.0039 82.9224C69.5166 82.9224 69.974 82.8321 70.3761 82.6514C70.7883 82.4606 71.12 82.1545 71.3714 81.7328H71.4015Z" fill="#0D091A"/>
<path d="M78.5389 80.8896C78.2072 80.8896 77.9307 80.8193 77.7095 80.6788C77.4884 80.5382 77.3074 80.3575 77.1667 80.1367C77.036 79.9158 76.9405 79.6699 76.8802 79.3988C76.8299 79.1178 76.8048 78.8367 76.8048 78.5556C76.8048 78.2645 76.835 77.9884 76.8953 77.7274C76.9656 77.4563 77.0712 77.2204 77.2119 77.0197C77.3627 76.8089 77.5437 76.6432 77.7548 76.5228C77.9759 76.4023 78.2373 76.3421 78.5389 76.3421C78.8907 76.3421 79.1823 76.4073 79.4135 76.5378C79.6447 76.6683 79.8307 76.844 79.9714 77.0648C80.1122 77.2857 80.2127 77.5417 80.273 77.8328C80.3333 78.1139 80.3635 78.415 80.3635 78.7363C80.3635 79.0174 80.3233 79.2884 80.2428 79.5494C80.1725 79.8004 80.0619 80.0263 79.9111 80.227C79.7603 80.4278 79.5693 80.5884 79.3381 80.7089C79.1069 80.8294 78.8405 80.8896 78.5389 80.8896ZM82.3992 82.2298V74.9417H80.3635V75.9807H80.3333C80.0719 75.5289 79.7452 75.2077 79.3532 75.0169C78.9712 74.8262 78.5238 74.7308 78.0111 74.7308C77.4683 74.7308 76.9857 74.8363 76.5635 75.0471C76.1514 75.2579 75.8045 75.544 75.5231 75.9054C75.2416 76.2567 75.0255 76.6683 74.8747 77.1401C74.7339 77.6019 74.6636 78.0838 74.6636 78.5857C74.6636 79.1178 74.7239 79.6247 74.8445 80.1066C74.9752 80.5784 75.1763 80.995 75.4477 81.3564C75.7191 81.7077 76.0659 81.9888 76.4881 82.1996C76.9104 82.4004 77.413 82.5008 77.996 82.5008C78.4685 82.5008 78.9159 82.4054 79.3381 82.2147C79.7704 82.0139 80.1021 81.7077 80.3333 81.2962H80.3635V82.3201C80.3735 82.8722 80.2378 83.329 79.9563 83.6904C79.6849 84.0518 79.2476 84.2325 78.6445 84.2325C78.2624 84.2325 77.9257 84.1522 77.6341 83.9915C77.3426 83.841 77.1466 83.5649 77.0461 83.1634H74.9199C74.9501 83.6051 75.0707 83.9815 75.2818 84.2927C75.503 84.6139 75.7744 84.875 76.0961 85.0757C76.4278 85.2765 76.7897 85.4221 77.1818 85.5124C77.5839 85.6128 77.9759 85.663 78.3579 85.663C79.2526 85.663 79.9664 85.5425 80.4992 85.3016C81.032 85.0607 81.4391 84.7645 81.7206 84.4132C82.0021 84.0719 82.183 83.7004 82.2634 83.2989C82.3539 82.8973 82.3992 82.541 82.3992 82.2298Z" fill="#0D091A"/>
<path d="M89.2199 77.9984H85.7366C85.7466 77.8479 85.7768 77.6772 85.8271 77.4865C85.8874 77.2957 85.9829 77.115 86.1136 76.9444C86.2543 76.7737 86.4352 76.6332 86.6564 76.5228C86.8876 76.4023 87.1741 76.3421 87.5159 76.3421C88.0387 76.3421 88.4257 76.4826 88.677 76.7637C88.9384 77.0448 89.1193 77.4563 89.2199 77.9984ZM85.7366 79.3537H91.3611C91.4013 78.7513 91.351 78.1741 91.2103 77.622C91.0696 77.0699 90.8384 76.578 90.5167 76.1463C90.205 75.7146 89.8029 75.3733 89.3103 75.1224C88.8178 74.8613 88.2397 74.7308 87.5762 74.7308C86.9831 74.7308 86.4403 74.8363 85.9477 75.0471C85.4652 75.2579 85.048 75.549 84.6961 75.9204C84.3443 76.2818 84.0729 76.7135 83.8819 77.2154C83.6908 77.7174 83.5953 78.2594 83.5953 78.8417C83.5953 79.444 83.6858 79.9961 83.8668 80.4981C84.0578 81 84.3242 81.4317 84.666 81.7931C85.0078 82.1545 85.4249 82.4355 85.9175 82.6363C86.4101 82.8271 86.963 82.9224 87.5762 82.9224C88.4609 82.9224 89.2148 82.7216 89.8381 82.3201C90.4614 81.9186 90.9238 81.251 91.2254 80.3174H89.3405C89.2701 80.5583 89.0791 80.7892 88.7675 81.0101C88.4558 81.2209 88.0839 81.3263 87.6516 81.3263C87.0485 81.3263 86.586 81.1707 86.2644 80.8595C85.9427 80.5483 85.7667 80.0463 85.7366 79.3537Z" fill="#0D091A"/>
<path d="M33.8658 78.8116C33.8658 79.1328 33.8356 79.444 33.7753 79.7452C33.715 80.0463 33.6145 80.3174 33.4737 80.5583C33.333 80.7892 33.142 80.9749 32.9007 81.1155C32.6695 81.256 32.378 81.3263 32.0261 81.3263C31.6944 81.3263 31.4079 81.256 31.1666 81.1155C30.9354 80.9649 30.7394 80.7741 30.5785 80.5433C30.4277 80.3023 30.3172 80.0313 30.2468 79.7301C30.1764 79.429 30.1412 79.1278 30.1412 78.8266C30.1412 78.5054 30.1714 78.1992 30.2317 77.9081C30.3021 77.6069 30.4076 77.3409 30.5484 77.11C30.6992 76.8791 30.8952 76.6934 31.1365 76.5529C31.3777 76.4123 31.6743 76.3421 32.0261 76.3421C32.378 76.3421 32.6695 76.4123 32.9007 76.5529C33.1319 76.6934 33.3179 76.8791 33.4586 77.11C33.6094 77.3309 33.715 77.5919 33.7753 77.893C33.8356 78.1842 33.8658 78.4903 33.8658 78.8116ZM33.8959 81.7328V82.7267H35.9316V71.9752H33.7904V75.8903H33.7602C33.519 75.5088 33.1872 75.2227 32.765 75.032C32.3528 74.8312 31.9155 74.7308 31.4531 74.7308C30.8801 74.7308 30.3775 74.8463 29.9452 75.0772C29.5129 75.298 29.151 75.5942 28.8595 75.9656C28.578 76.337 28.3619 76.7687 28.2111 77.2606C28.0704 77.7425 28 78.2444 28 78.7664C28 79.3085 28.0704 79.8305 28.2111 80.3324C28.3619 80.8344 28.578 81.2811 28.8595 81.6726C29.151 82.0541 29.518 82.3603 29.9603 82.5911C30.4026 82.812 30.9153 82.9224 31.4984 82.9224C32.011 82.9224 32.4684 82.8321 32.8706 82.6514C33.2827 82.4606 33.6145 82.1545 33.8658 81.7328H33.8959Z" fill="#0D091A"/>
<path d="M42.6468 77.9984H39.1635C39.1735 77.8479 39.2037 77.6772 39.254 77.4865C39.3143 77.2957 39.4098 77.115 39.5405 76.9444C39.6812 76.7737 39.8622 76.6332 40.0833 76.5228C40.3145 76.4023 40.601 76.3421 40.9428 76.3421C41.4656 76.3421 41.8526 76.4826 42.1039 76.7637C42.3653 77.0448 42.5462 77.4563 42.6468 77.9984ZM39.1635 79.3537H44.788C44.8282 78.7513 44.778 78.1741 44.6372 77.622C44.4965 77.0699 44.2653 76.578 43.9436 76.1463C43.6319 75.7146 43.2298 75.3733 42.7372 75.1224C42.2447 74.8613 41.6666 74.7308 41.0031 74.7308C40.41 74.7308 39.8672 74.8363 39.3746 75.0471C38.8921 75.2579 38.4749 75.549 38.123 75.9204C37.7712 76.2818 37.4998 76.7135 37.3088 77.2154C37.1178 77.7174 37.0223 78.2594 37.0223 78.8417C37.0223 79.444 37.1127 79.9961 37.2937 80.4981C37.4847 81 37.7511 81.4317 38.0929 81.7931C38.4347 82.1545 38.8519 82.4355 39.3444 82.6363C39.837 82.8271 40.3899 82.9224 41.0031 82.9224C41.8878 82.9224 42.6417 82.7216 43.265 82.3201C43.8883 81.9186 44.3507 81.251 44.6523 80.3174H42.7674C42.697 80.5583 42.506 80.7892 42.1944 81.0101C41.8828 81.2209 41.5108 81.3263 41.0785 81.3263C40.4754 81.3263 40.013 81.1707 39.6913 80.8595C39.3696 80.5483 39.1937 80.0463 39.1635 79.3537Z" fill="#0D091A"/>
<path d="M84.479 62.5585H73.5123C71.154 62.5585 70.167 60.6224 69.9683 59.6543C69.7957 58.824 69.5504 58.0214 69.2392 57.2535C68.7138 55.5958 69.6075 54.6909 70.12 54.4456L74.5119 51.913C75.1174 52.9206 75.6053 54.0162 76.01 55.1486C76.2423 55.775 77.1088 56.9354 78.716 56.5651L83.5256 55.2884C84.1323 57.6252 84.479 60.0486 84.479 62.5585Z" fill="#0D091A"/>
<path fill-rule="evenodd" clip-rule="evenodd" d="M76.1587 42.5657C72.6919 39.1037 68.3583 36.5072 63.4181 35.209L61.5981 42.0464C65.2382 42.9984 68.5317 44.9891 71.1318 47.5856L76.1587 42.5657Z" fill="#0D091A"/>
<path d="M37.6772 51.8264C35.8571 55.0287 34.817 58.6638 34.817 62.5585H31.5861C30.8945 62.5585 29.8406 62.3183 28.8196 61.233C28.0028 60.3647 27.9493 58.9856 28.0247 58.4045C28.4417 55.6557 29.2566 53.0335 30.3675 50.5816C30.6749 49.8656 31.7508 48.6415 33.5951 49.4725L37.6772 51.8264Z" fill="#0D091A"/>
<path d="M84.479 62.5585C84.479 60.0486 84.1323 57.6252 83.5256 55.2884L88.0039 54.0998C88.8022 53.8903 90.5086 53.9645 90.947 55.9379C91.1123 56.7907 91.2473 57.6588 91.3499 58.5361C91.4312 59.0404 91.3567 60.3187 90.4081 61.3975C89.4596 62.4762 88.1027 62.5586 87.7404 62.5586L84.479 62.5585Z" fill="#0D091A"/>
<path d="M71.1318 47.5856L79.499 39.2303C80.0832 38.6821 81.5844 37.9476 82.9151 39.3947C83.8787 40.4999 84.7775 41.6698 85.6021 42.9138C85.9486 43.6109 86.2686 45.2201 84.7762 46.0807L74.5121 51.9996C73.5587 50.3552 72.4319 48.8838 71.1318 47.5856Z" fill="#0D091A"/>
<path d="M70.3518 38.0656C66.1917 35.6422 61.3381 34.2574 56.1379 34.2574C54.3546 34.2574 52.615 34.4317 50.9189 34.7493C49.4171 35.032 48.5645 33.8422 48.3259 33.212L47.643 30.6466C47.4834 29.8665 47.5991 28.2114 49.338 27.832C51.5351 27.3958 53.8365 27.1604 56.1379 27.1604C61.6773 27.1604 66.958 28.4516 71.7009 30.7553C72.3816 31.0749 73.5453 32.1533 72.7548 33.9101L70.3518 38.0656Z" fill="#0D091A"/>
<path d="M56.0513 41.3541C57.9581 41.3541 59.8647 41.6136 61.5981 42.0464L60.3343 46.7947C60.171 47.4148 59.436 48.6171 57.8024 48.4649C57.2644 48.398 56.7096 48.3645 56.138 48.3645C49.2459 48.3645 43.545 53.2554 42.2165 59.6872C42.1093 60.1367 41.7104 61.1738 40.9726 61.7263C40.0505 62.417 39.293 62.5586 38.7001 62.5586L34.817 62.5585C34.817 50.7878 44.3509 41.3541 56.0513 41.3541Z" fill="#0D091A"/>
</svg>
